{"title":"Glory 33 New Jersey 720p WEB h264 [TJET]","uid":15802455,"size":3176433737,"categoryP":"video","categoryS":"hd___tv_shows","magnet":"?xt=urn:btih:ee1b523fde593dd8981ac316f886b6ffddfc9f45&amp;dn=Glory+33+New+Jersey+720p+WEB+h264+%5BTJET%5D&amp;tr=udp%3A%2F%2Ftracker.leechers-paradise.org%3A6969&amp;tr=udp%3A%2F%2Fzer0day.ch%3A1337&amp;tr=udp%3A%2F%2Fopen.demonii.com%3A1337&amp;tr=udp%3A%2F%2Ftracker.coppersurfer.tk%3A6969&amp;tr=udp%3A%2F%2Fexodus.desync.com%3A6969","seeders":21,"leechers":4,"uploader":"CenaCme","files":2,"time":1473524027,"description":"Serhiy Adamchuk vs Giga Chikadze (Semi Final 1)\r\nLim Chi-bin vs Matt Embree (Semi Final 2)\r\nGuto Inocente vs Hesdy Gerges\r\nSemi Final 1 Winner vs Semi Final 2 Winner\r\nRico Verhoeven vs Anderson Silva\r\n\r\nGeneral\r\nComplete name                            : Glory.33.New.Jersey.720p.WEB.h264.mp4\r\nFormat                                   : MPEG-4\r\nFormat profile                           : Base Media\r\nCodec ID                                 : isom\r\nFile size                                : 2.96 GiB\r\nDuration                                 : 2h 47mn\r\nOverall bit rate mode                    : Constant\r\nOverall bit rate                         : 2 535 Kbps\r\nWriting application                      : Lavf57.41.100\r\n\r\nVideo\r\nID                                       : 1\r\nFormat                                   : AVC\r\nFormat/Info                              : Advanced Video Codec\r\nFormat profile                           :   \r\nFormat settings, CABAC                   : Yes\r\nFormat settings, ReFrames                : 2 frames\r\nFormat settings, GOP                     : M=3, N=60\r\nCodec ID                                 : avc1\r\nCodec ID/Info                            : Advanced Video Coding\r\nDuration                                 : 2h 47mn\r\nBit rate mode                            : Constant\r\nBit rate                                 : 2 400 Kbps\r\nWidth                                    : 1 280 pixels\r\nHeight                                   : 720 pixels\r\nDisplay aspect ratio                     : 16:9\r\nFrame rate mode                          : Variable\r\nFrame rate                               : 29.970 fps\r\nMinimum frame rate                       : 2.994 fps\r\nMaximum frame rate                       : 16 000.000 fps\r\nStandard                                 : Component\r\nColor space                              : YUV\r\nChroma subsampling                       : 4:2:0\r\nBit depth                                : 8 bits\r\nScan type                                : Progressive\r\nBits/(Pixel*Frame)                       : 0.087\r\nStream size                              : 2.80 GiB (95%)\r\n\r\nAudio\r\nID                                       : 2\r\nFormat                                   : AAC\r\nFormat/Info                              : Advanced Audio Codec\r\nFormat profile                           : LC\r\nCodec ID                                 : 40\r\nDuration                                 : 2h 47mn\r\nBit rate mode                            : Constant\r\nBit rate                                 : 125 Kbps\r\nChannel(s)                               : 2 channels\r\nChannel positions                        : Front: L R\r\nSampling rate                            : 48.0 KHz\r\nCompression mode                         : Lossy\r\nStream size                              : 150 MiB (5%)\r\n\r\n\r\nThumb sheet:\r\n \nhttps://extraimago.com/image/wik2","torrent":{"xt":"urn:btih:ee1b523fde593dd8981ac316f886b6ffddfc9f45","amp;dn":"Glory+33+New+Jersey+720p+WEB+h264+%5BTJET%5D","amp;tr":["udp%3A%2F%2Ftracker.leechers-paradise.org%3A6969","udp%3A%2F%2Fzer0day.ch%3A1337","udp%3A%2F%2Fopen.demonii.com%3A1337","udp%3A%2F%2Ftracker.coppersurfer.tk%3A6969","udp%3A%2F%2Fexodus.desync.com%3A6969"],"infoHash":"ee1b523fde593dd8981ac316f886b6ffddfc9f45","infoHashBuffer":{"type":"Buffer","data":[238,27,82,63,222,89,61,216,152,26,195,22,248,134,182,255,221,252,159,69]},"announce":[],"urlList":[]}}